<svg width="22" height="22" viewBox="0 0 22 22" fill="none" xmlns="http://www.w3.org/2000/svg">
<path d="M0.979279 1.52072L3.23261 1.91072L4.27586 14.3398C4.35928 15.3549 5.20753 16.1338 6.22586 16.1306H18.0439C19.0157 16.1327 19.8401 15.4177 19.9777 14.4557L21.0058 7.35122C21.1206 6.55714 20.5692 5.82047 19.7762 5.70564C19.7069 5.69589 3.59445 5.69047 3.59445 5.69047" stroke="#001833" stroke-width="1.5" stroke-linecap="round" stroke-linejoin="round"/>
<path d="M13.3022 9.69438H16.3063" stroke="#001833" stroke-width="1.5" stroke-linecap="round" stroke-linejoin="round"/>
<path fill-rule="evenodd" clip-rule="evenodd" d="M5.7506 19.886C6.07669 19.886 6.33994 20.1504 6.33994 20.4754C6.33994 20.8015 6.07669 21.0658 5.7506 21.0658C5.42452 21.0658 5.16127 20.8015 5.16127 20.4754C5.16127 20.1504 5.42452 19.886 5.7506 19.886Z" fill="currentColor" stroke="#001833" stroke-width="1.5" stroke-linecap="round" stroke-linejoin="round"/>
<path fill-rule="evenodd" clip-rule="evenodd" d="M17.9709 19.886C18.297 19.886 18.5613 20.1504 18.5613 20.4754C18.5613 20.8015 18.297 21.0658 17.9709 21.0658C17.6448 21.0658 17.3816 20.8015 17.3816 20.4754C17.3816 20.1504 17.6448 19.886 17.9709 19.886Z" fill="currentColor" stroke="#001833" stroke-width="1.5" stroke-linecap="round" stroke-linejoin="round"/>
</svg>
