<svg width="31" height="30" viewBox="0 0 31 30" fill="none" xmlns="http://www.w3.org/2000/svg">
<g clip-path="url(#clip0_4_36)">
<path d="M22.103 21.1735C21.7807 21.1389 21.4925 21.3722 21.4582 21.6939L20.697 28.8281H10.1919L9.44099 21.7898C9.40665 21.468 9.11808 21.2347 8.79622 21.2694C8.47442 21.3037 8.24146 21.5924 8.27579 21.9141L9.08257 29.4762C9.11433 29.7741 9.36563 30 9.66517 30H21.2238C21.5234 30 21.7747 29.7741 21.8064 29.4762L22.6235 21.8183C22.6577 21.4965 22.4247 21.2078 22.103 21.1735Z" fill="#324A59"/>
<path d="M24.819 4.17715H23.5079L22.4758 1.63951C22.3859 1.41873 22.1714 1.27436 21.933 1.27436H18.338L17.3313 0.187734C17.2204 0.0680273 17.0646 0 16.9014 0H13.9875C13.8243 0 13.6685 0.0680273 13.5577 0.187734L12.5509 1.27436H8.95595C8.71759 1.27436 8.50302 1.41873 8.41319 1.63951L7.38095 4.17715H6.06991C5.7463 4.17715 5.48397 4.43947 5.48397 4.76309V7.28104C5.48397 7.60465 5.7463 7.86697 6.06991 7.86697H6.77702L7.51261 14.7616C7.54694 15.0834 7.83552 15.3166 8.15737 15.2821C8.47917 15.2477 8.71214 14.959 8.6778 14.6373L7.95546 7.86697H22.9333L22.2086 14.6598C22.1742 14.9816 22.4073 15.2702 22.729 15.3046C22.7501 15.3069 22.7711 15.308 22.7919 15.308C23.0875 15.308 23.3417 15.0848 23.3738 14.7841L24.1117 7.86697H24.8189C25.1425 7.86697 25.4048 7.60465 25.4048 7.28104V4.76309C25.4049 4.43947 25.1426 4.17715 24.819 4.17715ZM9.35011 2.44623H12.8068C12.97 2.44623 13.1257 2.3782 13.2366 2.2585L14.2433 1.17188H16.6456L17.6523 2.2585C17.7632 2.37814 17.919 2.44623 18.0821 2.44623H21.5388L22.2428 4.17715H8.64604L9.35011 2.44623ZM24.233 6.6951H6.65585V5.34902H24.233V6.6951Z" fill="#324A59"/>
<path d="M6.47456 12.8271L7.64292 23.7779H23.246L24.4143 12.8271H6.47456ZM15.4444 20.5038C14.2536 20.5038 13.2882 19.5384 13.2882 18.3475C13.2882 17.1567 14.2536 16.1913 15.4444 16.1913C16.6353 16.1913 17.6007 17.1567 17.6007 18.3475C17.6007 19.5384 16.6353 20.5038 15.4444 20.5038Z" fill="#E4D5C9"/>
<path d="M15.4444 21.0897C13.9324 21.0897 12.7022 19.8596 12.7022 18.3475C12.7022 16.8355 13.9324 15.6053 15.4444 15.6053C16.9565 15.6053 18.1866 16.8355 18.1866 18.3475C18.1866 19.8596 16.9565 21.0897 15.4444 21.0897ZM15.4444 16.7773C14.5786 16.7773 13.8741 17.4817 13.8741 18.3476C13.8741 19.2135 14.5785 19.9179 15.4444 19.9179C16.3103 19.9179 17.0147 19.2135 17.0147 18.3476C17.0147 17.4817 16.3103 16.7773 15.4444 16.7773Z" fill="#324A59"/>
</g>
<defs>
<clipPath id="clip0_4_36">
<rect width="30" height="30" fill="white" transform="translate(0.444443)"/>
</clipPath>
</defs>
</svg>
