<svg width="20" height="20" viewBox="0 0 20 20" fill="none" xmlns="http://www.w3.org/2000/svg">
<g id="Iconly/Light-Outline/Location">
<g id="Location">
<path id="Fill 1" fill-rule="evenodd" clip-rule="evenodd" d="M10.2088 7.08333C9.40466 7.08333 8.75049 7.7375 8.75049 8.5425C8.75049 9.34666 9.40466 10 10.2088 10C11.013 10 11.6672 9.34666 11.6672 8.5425C11.6672 7.7375 11.013 7.08333 10.2088 7.08333ZM10.2088 11.25C8.71549 11.25 7.50049 10.0358 7.50049 8.5425C7.50049 7.04833 8.71549 5.83333 10.2088 5.83333C11.7022 5.83333 12.9172 7.04833 12.9172 8.5425C12.9172 10.0358 11.7022 11.25 10.2088 11.25Z" fill="currentColor"/>
<g id="Group 5">
<mask id="mask0_26_266" style="mask-type:luminance" maskUnits="userSpaceOnUse" x="3" y="1" width="15" height="17">
<path id="Clip 4" fill-rule="evenodd" clip-rule="evenodd" d="M3.33337 1.66666H17.083V17.9167H3.33337V1.66666Z" fill="white"/>
</mask>
<g mask="url(#mask0_26_266)">
<path id="Fill 3" fill-rule="evenodd" clip-rule="evenodd" d="M10.208 2.91666C7.10634 2.91666 4.58301 5.46416 4.58301 8.59416C4.58301 12.5767 9.26967 16.4567 10.208 16.6633C11.1463 16.4558 15.833 12.5758 15.833 8.59416C15.833 5.46416 13.3097 2.91666 10.208 2.91666ZM10.208 17.9167C8.71301 17.9167 3.33301 13.29 3.33301 8.59416C3.33301 4.77416 6.41717 1.66666 10.208 1.66666C13.9988 1.66666 17.083 4.77416 17.083 8.59416C17.083 13.29 11.703 17.9167 10.208 17.9167Z" fill="currentColor"/>
</g>
</g>
</g>
</g>
</svg>
