<svg width="19" height="19" viewBox="0 0 19 19" fill="none" xmlns="http://www.w3.org/2000/svg">
<g id="Iconly/Light-Outline/Message">
<g id="Message">
<path id="Fill 1" fill-rule="evenodd" clip-rule="evenodd" d="M9.32337 10.6596C8.79375 10.6596 8.2657 10.4847 7.82395 10.1348L4.27333 7.27209C4.01762 7.06626 3.97804 6.6918 4.18308 6.43688C4.3897 6.18276 4.76337 6.14238 5.01829 6.34743L8.56575 9.20693C9.01145 9.56001 9.63925 9.56001 10.0881 9.20376L13.6 6.34901C13.8549 6.1408 14.2285 6.18038 14.436 6.4353C14.6426 6.68943 14.6038 7.06309 14.3497 7.27051L10.8315 10.13C10.3866 10.4831 9.85458 10.6596 9.32337 10.6596Z" fill="currentColor"/>
<g id="Group 5">
<mask id="mask0_26_258" style="mask-type:luminance" maskUnits="userSpaceOnUse" x="0" y="1" width="18" height="17">
<path id="Clip 4" fill-rule="evenodd" clip-rule="evenodd" d="M0.791626 1.58333H17.8124V17.0208H0.791626V1.58333Z" fill="white"/>
</mask>
<g mask="url(#mask0_26_258)">
<path id="Fill 3" fill-rule="evenodd" clip-rule="evenodd" d="M5.41405 15.8333H13.1882C13.1898 15.8317 13.1961 15.8333 13.2009 15.8333C14.1042 15.8333 14.9053 15.5103 15.5197 14.8968C16.233 14.1867 16.6248 13.1662 16.6248 12.0238V6.58666C16.6248 4.37554 15.1793 2.77083 13.1882 2.77083H5.41563C3.42459 2.77083 1.979 4.37554 1.979 6.58666V12.0238C1.979 13.1662 2.37167 14.1867 3.08417 14.8968C3.6985 15.5103 4.50046 15.8333 5.40296 15.8333H5.41405ZM5.40059 17.0208C4.17905 17.0208 3.08813 16.5775 2.2458 15.7383C1.30767 14.8026 0.791504 13.4837 0.791504 12.0238V6.58666C0.791504 3.73429 2.77938 1.58333 5.41563 1.58333H13.1882C15.8245 1.58333 17.8123 3.73429 17.8123 6.58666V12.0238C17.8123 13.4837 17.2962 14.8026 16.358 15.7383C15.5165 16.5767 14.4248 17.0208 13.2009 17.0208H13.1882H5.41563H5.40059Z" fill="currentColor"/>
</g>
</g>
</g>
</g>
</svg>
